<svg width="14" height="17" viewBox="0 0 14 17" fill="none" xmlns="http://www.w3.org/2000/svg">
<mask id="mask0_62_3615" style="mask-type:alpha" maskUnits="userSpaceOnUse" x="0" y="0" width="14" height="17">
<rect width="14" height="16" transform="matrix(-1 0 0 1 14 0.350098)" fill="#000"/>
</mask>
<g mask="url(#mask0_62_3615)">
<path d="M4.41775 12.9747C4.68033 13.2581 5.12858 13.2581 5.39116 12.9747L9.37036 8.67962C9.72561 8.29617 9.72561 7.70383 9.37036 7.32038L5.39116 3.02534C5.12858 2.74192 4.68033 2.74192 4.41775 3.02534C4.18206 3.27974 4.18206 3.67276 4.41775 3.92716L7.56144 7.32038C7.91669 7.70383 7.91669 8.29618 7.56144 8.67962L4.41775 12.0728C4.18206 12.3272 4.18206 12.7203 4.41775 12.9747Z" fill="#000"/>
</g>
</svg>
